<svg width="44" height="44" viewBox="0 0 44 44" fill="none" xmlns="http://www.w3.org/2000/svg">
<rect width="44" height="44" fill="#DBDBDB"/>
<path d="M25.75 16C25.75 16.9946 25.3549 17.9484 24.6516 18.6517C23.9484 19.3549 22.9945 19.75 22 19.75C21.0054 19.75 20.0516 19.3549 19.3483 18.6517C18.6451 17.9484 18.25 16.9946 18.25 16C18.25 15.0054 18.6451 14.0516 19.3483 13.3483C20.0516 12.6451 21.0054 12.25 22 12.25C22.9945 12.25 23.9484 12.6451 24.6516 13.3483C25.3549 14.0516 25.75 15.0054 25.75 16ZM14.501 30.118C14.5331 28.1504 15.3373 26.2742 16.7402 24.894C18.143 23.5139 20.0321 22.7405 22 22.7405C23.9679 22.7405 25.857 23.5139 27.2598 24.894C28.6626 26.2742 29.4668 28.1504 29.499 30.118C27.1464 31.1968 24.5881 31.7535 22 31.75C19.324 31.75 16.784 31.166 14.501 30.118Z" stroke="#3E3232" stroke-width="1.5" stroke-linecap="round" stroke-linejoin="round"/>
</svg>
