<svg width="20" height="20" viewBox="0 0 20 20" fill="none" xmlns="http://www.w3.org/2000/svg">
<path d="M19.5575 17.3325C20.1435 17.9575 20.1435 18.934 19.5575 19.559C18.9325 20.145 17.956 20.145 17.331 19.559L12.6825 14.8715C11.081 15.9262 9.12785 16.4731 7.01848 16.1997C3.42473 15.6919 0.5341 12.7622 0.0653499 9.20749C-0.598713 3.89499 3.89347 -0.597202 9.20597 0.0668605C12.7607 0.535611 15.6903 3.42624 16.1982 7.01999C16.4716 9.12936 15.9247 11.0825 14.87 12.645L19.5575 17.3325ZM3.11222 8.11374C3.11222 10.8872 5.33879 13.1137 8.11222 13.1137C10.8466 13.1137 13.1122 10.8872 13.1122 8.11374C13.1122 5.37936 10.8466 3.11374 8.11222 3.11374C5.33879 3.11374 3.11222 5.37936 3.11222 8.11374Z" fill="#3E3232"/>
</svg>
